# xmcd
#
# Track frame offsets: 
#        150
#        12770
#        25460
#        36847
#        50337
#        62935
#        76385
#        88170
#        101222
#        113335
#        125307
#        136850
#        149482
#        161705
#        173132
#        186557
#        198782
#        211832
#        224160
#        236010
#        248357
#        260237
#        272515
#        284107
#        296495
#
# Disc length: 4103 seconds
#
# Revision: 2
# Processed by: cddbd v1.5.2PL0 Copyright (c) Steve Scherf et al.
# Submitted via: ExactAudioCopy v1.1
#
DISCID=7f100519
DTITLE=Champion Jack Dupree - New Orleans Barrelhouse Boogie (Roots N'
DTITLE=Blues)
DYEAR=1993
DGENRE=Blues
TTITLE0=Gamblin' Man Blues (mono)
TTITLE1=Warehouse Man Blues (mono)
TTITLE2=Chain Gang Blues (mono)
TTITLE3=New Low Down Dog (mono)
TTITLE4=Black Woman Swing (mono)
TTITLE5=Gabbage Greens No. 1 (mono)
TTITLE6=Gabbage Greens No. 2 (mono)
TTITLE7=Angola Blues (mono)
TTITLE8=My Cabin Inn (alt) (mono)
TTITLE9=Bad Health Blues (alt) (mono)
TTITLE10=That's Allright (mono)
TTITLE11=Gibing Blues (alt) (mono)
TTITLE12=Dupree Shake Dance (alt) (mono)
TTITLE13=My Baby's Gone (alt) (mono)
TTITLE14=Weed Head Woman (mono)
TTITLE15=Junker's Blues (mono)
TTITLE16=Oh, Red (mono)
TTITLE17=All Alone Blues (mono)
TTITLE18=Big Time Mama (mono)
TTITLE19=Shady Lane (mono)
TTITLE20=Hurry Down Sunshine (mono)
TTITLE21=Jackie P. Blues (alt) (mono)
TTITLE22=Heavy Heart Blues (mono)
TTITLE23=Morning Tea (mono)
TTITLE24=Black Cow Blues (alt) (mono)
EXTD=
EXTT0=
EXTT1=
EXTT2=
EXTT3=
EXTT4=
EXTT5=
EXTT6=
EXTT7=
EXTT8=
EXTT9=
EXTT10=
EXTT11=
EXTT12=
EXTT13=
EXTT14=
EXTT15=
EXTT16=
EXTT17=
EXTT18=
EXTT19=
EXTT20=
EXTT21=
EXTT22=
EXTT23=
EXTT24=
PLAYORDER=
